<?xml version="1.0" encoding="UTF-8"?>
<svg width="127px" height="48px" viewBox="0 0 127 48" version="1.1" xmlns="http://www.w3.org/2000/svg" xmlns:xlink="http://www.w3.org/1999/xlink">
    <!-- Generator: Sketch 61.2 (89653) - https://sketch.com -->
    <title>Logo</title>
    <desc>Created with Sketch.</desc>
    <g id="Page-1" stroke="none" stroke-width="1" fill="none" fill-rule="evenodd">
        <g id="Logo" fill="#402E24">
            <path d="M100.546125,25.2251178 C101.211866,25.2251178 102.83336,25.4114378 106.366754,25.5470498 C108.481673,25.8028369 110.405087,24.3080754 110.662723,22.2083357 C110.708385,21.8361841 110.698741,21.4594406 110.634184,21.0900247 C108.060283,21.7927062 105.400175,22.1349606 102.730915,22.106822 C99.3170888,22.106822 95.1180527,23.0558133 95.0496581,26.0214966 C94.9814603,28.9872776 98.8732618,29.6482399 100.904533,30.2074931 C101.467829,30.3431051 101.672619,30.7837466 101.297187,31.088776 C100.426558,31.7835436 98.4807062,32.6817292 98.2416695,34.2916827 C97.9174101,36.5795011 99.9486811,38.3758724 102.679742,38.3250667 C106.23026,38.3250667 110.139086,36.7489185 113.894394,32.2749907 C114.95269,31.0039696 116.14748,28.8856663 116.881516,27.9365773 C117.083157,27.6370193 117.423359,27.4585155 117.786195,27.4621305 C118.451936,27.6145475 119.493108,28.122995 119.288318,28.8347629 C119.100553,29.9532693 116.062159,33.3934971 118.076405,35.4778974 C120.007495,37.1739275 122.864619,37.3146201 124.955329,35.8168299 C127.293933,34.1222654 126.474575,32.5800202 125.535748,32.4275054 C124.870008,32.4275054 123.026502,34.6475178 121.524478,33.0036613 C120.278416,31.6309312 123.231391,28.8177626 123.811712,27.8179656 C124.665218,26.3605268 121.353639,25.2759234 119.971083,23.4625518 C119.083429,22.2763371 121.40491,18.6326912 118.486084,17.6667973 C117.530133,17.3447675 114.594184,19.1072357 115.635455,24.1404167 C114.304072,29.1228897 104.130692,37.8336196 102.782187,34.3086831 C102.457829,33.4613031 103.328359,32.0208647 105.64984,31.5462225 C109.490469,30.7497459 109.200259,28.3942191 107.356753,28.156898 C104.959694,27.9317898 102.581234,27.5410747 100.238792,26.987586 C98.9074099,26.987586 98.941558,25.2081174 100.546125,25.2251178" id="Fill-1"></path>
            <path d="M44.673795,30.785699 C43.6852292,31.6656499 42.954139,32.803974 42.55998,34.0761779 C42.1119082,35.9138386 43.2185364,37.7717542 45.0317845,38.2260563 C45.40664,38.3199204 45.794657,38.3479808 46.1788718,38.3092495 C49.2396235,38.3092495 50.2542196,36.0127417 55.3779931,32.8422112 C56.6155527,31.8914177 57.9341278,31.0541502 59.3180224,30.3400917 C59.6055255,30.3400917 60.0113834,30.425755 59.9775538,30.9741188 C59.4193163,32.6649564 59.3258218,34.4778172 59.7070143,36.2183534 C60.0494051,37.3395843 61.2237901,37.9671891 62.3301258,37.6201885 C62.5275465,37.5582382 62.7150231,37.466943 62.886121,37.3495636 C64.8477514,35.8413163 64.8646174,35.0015787 67.4011564,31.6082446 C67.8238803,31.0427878 69.3626892,28.4720981 70.0729162,28.8148501 C70.7831432,29.1575033 70.4957377,29.9287695 70.3942489,30.5285115 C69.8530725,33.6990419 68.5002777,38.7033798 74.6725744,37.9322124 C76.1437241,37.7436938 77.3274682,36.749624 76.2113833,35.6870828 C75.5349859,35.0358638 74.7740633,35.5157562 73.9285178,35.3100457 C71.9500213,34.8473452 76.8539511,25.6956979 74.5035238,23.9990309 C71.2228308,21.6168597 68.1621765,25.8499314 65.879311,28.9347985 C64.9829724,30.1515732 64.306575,29.6203026 63.731569,27.9064436 C63.1566604,26.1927822 59.1658379,27.3923649 56.9675952,28.5748545 C53.3826306,30.4428482 46.8214395,36.7154377 46.1619082,33.5790935 C46.0604193,33.0307298 46.9228309,31.8654322 48.529299,31.2483995 C50.4232702,30.5457034 52.5539512,29.9287695 52.5539512,28.780565 C52.5539512,27.8894493 52.0297383,27.2723177 51.4548298,27.2895097 C48.4062645,27.8106034 45.2899425,27.7699949 42.255611,27.1695613 C41.4608587,27.1695613 41.12266,25.1301422 43.4900508,25.4558011 C44.1157525,25.4558011 45.5193404,25.6271277 50.8121645,25.729983 C54.5494112,25.729983 54.6339365,22.9707747 54.1942489,21.4626263 C51.6074043,22.2074129 48.9114665,22.4858434 46.2295674,22.2852707 C42.847483,22.2852707 38.1295675,22.765163 38.3324477,26.1413052 C38.5015958,28.9689848 42.4247591,29.7574429 44.4539512,29.9802466 C44.9105048,29.9115776 45.096519,30.4772321 44.673795,30.785699" id="Fill-4"></path>
            <path d="M33.8627363,23.5202288 C34.0507084,22.5958826 34.8374792,21.9077215 35.7886397,21.8357588 C37.2352289,21.3432857 38.7090362,20.9327781 40.2028887,20.6060812 C43.151486,19.881696 43.9866009,20.0501916 44.3615625,18.0455315 C44.5668285,17.3393069 44.4418413,16.5792803 44.0206973,15.9736675 C44.0206973,15.9736675 37.6123522,17.9613323 36.3169857,18.3151244 C35.0216192,18.6688194 35.4136781,17.6245354 35.4136781,17.6245354 C35.4136781,17.6245354 35.2602936,18.3656245 35.9420241,15.3503796 C38.0384092,6.22044572 36.8112354,3.77789147 35.1410055,2.3966164 C30.9142373,-1.0061197 15.4727177,6.16984849 4.42844817,14.777689 C0.747024988,17.9445313 -1.38335819,18.6688194 1.01979579,21.212471 C3.15027722,23.3180341 4.53073722,21.7346615 4.53073722,21.7346615 C6.57592865,20.1511918 11.007275,15.7209727 13.8194869,13.6153125 C17.9269671,10.6169657 23.56839,6.28784394 28.5791777,5.19286564 C32.5503708,4.19898467 33.6922546,5.34446308 33.2151022,9.35358894 C32.5193205,13.1479922 31.5220759,16.882281 30.2324085,20.5217849 C30.2324085,20.5217849 26.1420257,22.256852 24.9148519,22.7285425 C23.9604488,23.0822375 22.9377549,22.8295427 22.8355641,25.0026012 C22.733275,27.1756597 24.199025,26.4512745 25.153428,26.0974824 C26.1079293,25.7437874 27.6247747,25.0026012 28.2724088,24.7499064 C28.920043,24.4973087 29.2780055,24.7499064 29.022332,25.3899953 C28.1884945,27.9756008 27.1924291,30.50721 26.0397366,32.9702557 C23.9604488,37.8721652 20.227832,44.5596419 19.7506796,46.2441119 C19.7506796,47.3559883 21.0289488,47.5074886 22.6480833,47.5243867 C23.5002955,47.4735953 24.2891298,47.0623107 24.8125628,46.3957093 C24.8125628,46.3957093 26.7385644,42.3023842 29.7552562,35.0758188 C31.8686403,29.8202143 33.2661976,25.4910926 33.8627363,23.5202288" id="Fill-6"></path>
            <path d="M86.3792483,25.3094817 C84.0697465,24.6462015 82.0658089,27.3842302 81.4714223,29.8161598 C80.8771336,32.2480893 81.2167691,35.02014 83.1696977,35.3941849 C84.7829908,35.7003822 86.5660527,34.2888159 87.1265638,31.6868748 C87.2454216,30.9896707 87.5510837,28.7617746 87.6359681,28.1835001 C88.1963814,24.6462015 88.6039636,23.0816837 88.6039636,23.0816837 C90.5398565,15.7349111 95.1760916,1.36452527 96.4327135,0.531233495 C97.6894334,-0.302058284 101.323602,-0.489129788 100.202677,2.50391623 C98.5044998,7.16374191 96.4327135,11.2962769 94.5816071,17.0444117 C92.4249363,23.8469316 88.2643281,34.5949151 91.9833808,35.0712219 C93.6815583,35.2922172 94.428776,33.6936775 95.4647181,34.5099093 C97.0610735,35.768426 95.311887,38.013186 92.2381319,38.3192852 C88.009577,38.4724328 88.0945593,35.9895194 86.2264172,37.0608665 C83.2206088,38.761472 80.7922492,38.4213509 79.2637427,36.9078169 C77.5974825,34.9044459 77.0140614,32.2119104 77.7014585,29.6971321 C78.720365,24.5952176 82.6602934,20.9218314 87.0755549,23.1497275 C87.0755549,23.1497275 88.2133191,23.710844 88.1113991,24.6632615 C88.009577,25.6155809 87.4831371,25.4965532 86.3792483,25.3094817" id="Fill-9"></path>
        </g>
    </g>
</svg>